<svg id="svg" version="1.1" xmlns="http://www.w3.org/2000/svg" xmlns:xlink="http://www.w3.org/1999/xlink" width="400" height="282.9032258064516" viewBox="0, 0, 400,282.9032258064516"><g id="svgg"><path id="path0" d="M57.952 116.042 C 56.641 117.827,54.297 122.371,54.480 122.773 L 54.667 123.183 85.260 123.118 C 111.264 123.062,115.885 123.017,116.068 122.818 C 116.186 122.689,116.570 121.666,116.920 120.545 C 117.741 117.916,117.676 117.679,116.129 117.641 C 115.554 117.627,114.596 117.598,114.000 117.577 C 113.404 117.555,111.379 117.491,109.500 117.434 C 107.621 117.378,105.258 117.293,104.250 117.246 C 101.473 117.118,98.644 117.011,91.083 116.748 C 89.708 116.700,87.721 116.626,86.667 116.582 C 84.133 116.478,78.174 116.265,72.833 116.089 C 69.779 115.988,67.387 115.891,62.417 115.668 C 60.400 115.577,58.660 115.502,58.550 115.502 C 58.440 115.501,58.171 115.744,57.952 116.042 M64.750 125.167 L 50.417 125.250 49.051 128.000 C 46.527 133.081,45.862 132.611,55.200 132.341 C 59.261 132.224,63.483 132.105,64.583 132.076 C 68.480 131.974,73.948 131.822,76.250 131.752 C 79.992 131.638,87.152 131.443,94.750 131.248 C 96.767 131.197,99.279 131.124,100.333 131.086 C 103.352 130.980,110.578 130.791,112.473 130.770 C 114.042 130.752,114.223 130.717,114.497 130.378 C 115.013 129.742,115.551 125.713,115.180 125.266 C 114.974 125.018,96.550 124.982,64.750 125.167 M107.613 133.441 C 107.597 133.456,102.108 133.523,95.417 133.588 C 88.725 133.653,81.938 133.725,80.333 133.748 C 78.729 133.770,71.867 133.836,65.083 133.895 C 49.668 134.030,47.675 134.094,47.318 134.470 C 46.650 135.175,44.477 141.524,44.757 141.951 C 44.961 142.262,45.125 142.335,45.469 142.270 C 45.715 142.223,47.267 142.140,48.917 142.085 C 51.550 141.998,54.936 141.836,59.417 141.584 C 60.150 141.543,61.762 141.467,63.000 141.416 C 64.237 141.365,65.850 141.290,66.583 141.249 C 67.317 141.209,68.892 141.132,70.083 141.079 C 71.275 141.026,72.887 140.953,73.667 140.917 C 74.446 140.881,76.208 140.805,77.583 140.747 C 78.958 140.690,80.721 140.612,81.500 140.574 C 83.205 140.491,85.845 140.370,88.667 140.245 C 89.813 140.194,91.388 140.122,92.167 140.085 C 92.946 140.048,94.483 139.975,95.583 139.923 C 96.683 139.871,98.258 139.795,99.083 139.755 C 103.319 139.546,106.772 139.394,110.724 139.243 C 113.762 139.127,114.059 139.032,114.106 138.166 C 114.162 137.156,114.361 134.718,114.414 134.388 C 114.561 133.488,114.299 133.417,110.835 133.415 C 109.079 133.414,107.629 133.426,107.613 133.441 M110.618 141.268 C 110.599 141.285,109.346 141.349,107.833 141.408 C 106.321 141.468,104.446 141.548,103.667 141.587 C 102.888 141.625,101.237 141.699,100.000 141.751 C 95.543 141.938,94.556 141.982,92.833 142.075 C 91.871 142.126,89.921 142.210,88.500 142.260 C 87.079 142.310,85.279 142.379,84.500 142.413 C 83.721 142.447,81.921 142.521,80.500 142.578 C 79.079 142.635,77.354 142.714,76.667 142.753 C 75.979 142.792,74.329 142.865,73.000 142.916 C 71.671 142.966,69.946 143.040,69.167 143.080 C 65.799 143.252,61.831 143.421,57.250 143.588 C 51.324 143.804,44.740 144.139,44.500 144.237 C 43.885 144.489,40.500 150.166,40.500 150.946 L 40.500 151.692 41.958 151.593 C 42.760 151.538,45.704 151.342,48.500 151.156 C 51.296 150.971,53.921 150.789,54.333 150.753 C 54.746 150.717,56.096 150.640,57.333 150.582 C 58.571 150.525,59.921 150.449,60.333 150.415 C 60.746 150.380,61.871 150.306,62.833 150.250 C 63.796 150.193,64.921 150.118,65.333 150.083 C 65.746 150.048,66.871 149.976,67.833 149.924 C 68.796 149.872,70.071 149.793,70.667 149.749 C 73.547 149.536,74.218 149.494,76.000 149.416 C 77.054 149.370,78.404 149.297,79.000 149.253 C 79.596 149.210,80.683 149.136,81.417 149.090 C 82.942 148.993,85.563 148.825,86.667 148.753 C 87.079 148.726,88.279 148.655,89.333 148.594 C 90.388 148.533,91.550 148.455,91.917 148.422 C 92.283 148.388,93.446 148.314,94.500 148.256 C 95.554 148.199,96.979 148.114,97.667 148.069 C 98.354 148.023,99.479 147.952,100.167 147.912 C 103.792 147.700,105.825 147.571,108.025 147.414 C 108.543 147.377,109.818 147.296,110.858 147.235 C 111.899 147.173,112.919 147.111,113.125 147.097 C 113.885 147.044,113.986 146.733,114.082 144.151 C 114.195 141.119,114.222 141.160,112.109 141.205 C 111.308 141.222,110.637 141.251,110.618 141.268 " stroke="none" fill="#045ccc" fill-rule="evenodd"></path><path id="path1" d="M118.667 117.417 L 118.667 118.667 121.917 118.667 L 125.167 118.667 125.167 117.417 L 125.167 116.167 121.917 116.167 L 118.667 116.167 118.667 117.417 M132.500 117.417 L 132.500 118.667 135.750 118.667 L 139.000 118.667 139.000 117.417 L 139.000 116.167 135.750 116.167 L 132.500 116.167 132.500 117.417 M164.500 117.417 L 164.500 118.667 167.750 118.667 L 171.000 118.667 171.000 117.417 L 171.000 116.167 167.750 116.167 L 164.500 116.167 164.500 117.417 M178.333 117.417 L 178.333 118.667 181.667 118.667 L 185.000 118.667 185.000 117.417 L 185.000 116.167 181.667 116.167 L 178.333 116.167 178.333 117.417 M141.667 117.500 L 141.667 118.667 151.754 118.667 L 161.842 118.667 161.602 118.208 C 160.628 116.342,160.575 116.333,150.422 116.333 L 141.667 116.333 141.667 117.500 M118.667 121.500 L 118.667 123.167 121.917 123.167 L 125.167 123.167 125.167 121.500 L 125.167 119.833 121.917 119.833 L 118.667 119.833 118.667 121.500 M132.500 121.500 L 132.500 123.167 135.750 123.167 L 139.000 123.167 139.000 121.500 L 139.000 119.833 135.750 119.833 L 132.500 119.833 132.500 121.500 M141.667 121.470 L 141.667 123.107 151.833 123.107 L 162.000 123.107 162.000 121.470 L 162.000 119.833 151.833 119.833 L 141.667 119.833 141.667 121.470 M164.500 121.500 L 164.500 123.167 167.750 123.167 L 171.000 123.167 171.000 121.500 L 171.000 119.833 167.750 119.833 L 164.500 119.833 164.500 121.500 M178.333 121.500 L 178.333 123.167 181.667 123.167 L 185.000 123.167 185.000 121.500 L 185.000 119.833 181.667 119.833 L 178.333 119.833 178.333 121.500 M118.667 126.500 L 118.667 128.833 121.917 128.833 L 125.167 128.833 125.167 126.500 L 125.167 124.167 121.917 124.167 L 118.667 124.167 118.667 126.500 M132.500 126.500 L 132.500 128.833 135.750 128.833 L 139.000 128.833 139.000 126.500 L 139.000 124.167 135.750 124.167 L 132.500 124.167 132.500 126.500 M141.667 126.500 L 141.667 128.833 144.917 128.833 L 148.167 128.833 148.167 126.500 L 148.167 124.167 144.917 124.167 L 141.667 124.167 141.667 126.500 M155.500 126.500 L 155.500 128.833 158.750 128.833 L 162.000 128.833 162.000 126.500 L 162.000 124.167 158.750 124.167 L 155.500 124.167 155.500 126.500 M164.500 126.500 L 164.500 128.833 167.750 128.833 L 171.000 128.833 171.000 126.500 L 171.000 124.167 167.750 124.167 L 164.500 124.167 164.500 126.500 M178.333 126.504 L 178.333 128.840 181.625 128.795 L 184.917 128.750 184.963 126.458 L 185.009 124.167 181.671 124.167 L 178.333 124.167 178.333 126.504 M118.667 132.250 L 118.667 134.667 121.917 134.667 L 125.167 134.667 125.167 132.250 L 125.167 129.833 121.917 129.833 L 118.667 129.833 118.667 132.250 M132.500 132.250 L 132.500 134.667 135.750 134.667 L 139.000 134.667 139.000 132.250 L 139.000 129.833 135.750 129.833 L 132.500 129.833 132.500 132.250 M141.667 132.250 L 141.667 134.667 151.750 134.667 C 157.296 134.667,161.833 134.603,161.833 134.526 C 161.833 134.291,161.323 133.922,159.709 132.989 C 158.862 132.499,158.224 132.043,158.292 131.975 C 158.361 131.908,159.092 131.466,159.917 130.994 C 160.742 130.523,161.488 130.068,161.575 129.985 C 161.670 129.894,157.728 129.833,151.700 129.833 L 141.667 129.833 141.667 132.250 M164.500 132.250 L 164.500 134.667 167.750 134.667 L 171.000 134.667 171.000 132.250 L 171.000 129.833 167.750 129.833 L 164.500 129.833 164.500 132.250 M178.333 132.250 L 178.333 134.667 181.667 134.667 L 185.000 134.667 185.000 132.250 L 185.000 129.833 181.667 129.833 L 178.333 129.833 178.333 132.250 M118.667 138.250 L 118.667 140.667 121.917 140.667 L 125.167 140.667 125.167 138.250 L 125.167 135.833 121.917 135.833 L 118.667 135.833 118.667 138.250 M132.500 138.250 L 132.500 140.667 135.750 140.667 L 139.000 140.667 139.000 138.250 L 139.000 135.833 135.750 135.833 L 132.500 135.833 132.500 138.250 M141.667 138.250 L 141.667 140.667 144.917 140.667 L 148.167 140.667 148.167 138.250 L 148.167 135.833 144.917 135.833 L 141.667 135.833 141.667 138.250 M155.500 138.250 L 155.500 140.667 158.750 140.667 L 162.000 140.667 162.000 138.250 L 162.000 135.833 158.750 135.833 L 155.500 135.833 155.500 138.250 M164.500 138.250 L 164.500 140.667 167.750 140.667 L 171.000 140.667 171.000 138.250 L 171.000 135.833 167.750 135.833 L 164.500 135.833 164.500 138.250 M178.333 138.250 L 178.333 140.667 181.667 140.667 L 185.000 140.667 185.000 138.250 L 185.000 135.833 181.667 135.833 L 178.333 135.833 178.333 138.250 M118.667 143.583 L 118.667 145.333 128.833 145.333 L 139.000 145.333 139.000 143.583 L 139.000 141.833 135.750 141.833 C 133.694 141.833,132.500 141.895,132.500 142.000 C 132.500 142.106,131.167 142.167,128.833 142.167 C 126.500 142.167,125.167 142.106,125.167 142.000 C 125.167 141.895,123.972 141.833,121.917 141.833 L 118.667 141.833 118.667 143.583 M141.667 143.583 L 141.667 145.333 144.917 145.333 L 148.167 145.333 148.167 143.583 L 148.167 141.833 144.917 141.833 L 141.667 141.833 141.667 143.583 M155.500 143.583 L 155.500 145.333 158.750 145.333 L 162.000 145.333 162.000 143.583 L 162.000 141.833 158.750 141.833 L 155.500 141.833 155.500 143.583 M164.500 143.583 L 164.500 145.333 174.750 145.333 L 185.000 145.333 185.000 143.583 L 185.000 141.833 181.667 141.833 C 179.556 141.833,178.333 141.894,178.333 142.000 C 178.333 142.106,177.000 142.167,174.667 142.167 C 172.333 142.167,171.000 142.106,171.000 142.000 C 171.000 141.895,169.806 141.833,167.750 141.833 L 164.500 141.833 164.500 143.583 M118.667 146.928 C 118.667 148.490,118.730 148.500,128.833 148.500 C 138.936 148.500,139.000 148.490,139.000 146.928 L 139.000 146.500 128.833 146.500 L 118.667 146.500 118.667 146.928 M141.667 147.500 L 141.667 148.500 144.917 148.500 L 148.167 148.500 148.167 147.500 L 148.167 146.500 144.917 146.500 L 141.667 146.500 141.667 147.500 M155.500 147.500 L 155.500 148.500 158.750 148.500 L 162.000 148.500 162.000 147.500 L 162.000 146.500 158.750 146.500 L 155.500 146.500 155.500 147.500 M164.500 146.842 C 164.500 147.443,164.971 148.124,165.520 148.315 C 166.402 148.623,183.180 148.569,183.928 148.256 C 184.463 148.032,185.000 147.239,185.000 146.672 C 185.000 146.556,181.685 146.500,174.750 146.500 C 164.528 146.500,164.500 146.501,164.500 146.842 " stroke="none" fill="#d4240c" fill-rule="evenodd"></path><path id="path2" d="M189.667 116.432 C 188.797 116.809,187.667 118.020,187.667 118.575 C 187.667 118.625,192.167 118.667,197.667 118.667 C 205.910 118.667,207.667 118.627,207.667 118.444 C 207.667 117.996,206.729 116.996,205.926 116.586 L 205.101 116.167 197.676 116.173 C 191.418 116.179,190.158 116.219,189.667 116.432 M210.333 117.417 L 210.333 118.667 220.484 118.667 L 230.635 118.667 230.540 118.301 C 230.386 117.711,229.147 116.596,228.397 116.372 C 227.893 116.221,225.415 116.167,219.022 116.167 L 210.333 116.167 210.333 117.417 M256.820 116.630 C 256.419 116.988,256.280 117.274,256.212 117.880 L 256.123 118.667 266.395 118.667 L 276.667 118.667 276.667 118.075 C 276.667 116.137,276.828 116.167,266.328 116.167 L 257.339 116.167 256.820 116.630 M279.167 117.417 L 279.167 118.667 282.500 118.667 L 285.833 118.667 285.833 117.417 L 285.833 116.167 282.500 116.167 L 279.167 116.167 279.167 117.417 M288.821 116.654 C 288.424 117.050,288.333 117.283,288.333 117.904 L 288.333 118.667 292.250 118.667 C 294.404 118.667,296.167 118.628,296.167 118.581 C 296.167 118.534,295.933 118.081,295.648 117.575 C 294.906 116.262,294.643 116.167,291.745 116.167 L 289.308 116.167 288.821 116.654 M302.666 116.641 C 302.257 117.051,302.167 117.279,302.167 117.904 L 302.167 118.667 305.417 118.667 L 308.667 118.667 308.667 117.926 C 308.667 116.472,308.279 116.260,305.515 116.196 L 303.166 116.141 302.666 116.641 M313.614 116.336 C 312.726 116.603,311.058 118.281,311.371 118.593 C 311.413 118.635,315.962 118.650,321.479 118.626 L 331.512 118.583 331.004 117.783 C 330.624 117.184,330.278 116.881,329.623 116.577 L 328.750 116.170 321.417 116.183 C 317.383 116.190,313.872 116.259,313.614 116.336 M334.654 116.654 C 334.257 117.050,334.167 117.283,334.167 117.904 L 334.167 118.667 344.333 118.667 L 354.500 118.667 354.500 117.417 L 354.500 116.167 344.821 116.167 L 335.141 116.167 334.654 116.654 M233.333 117.496 L 233.333 118.667 243.417 118.667 C 248.963 118.667,253.500 118.619,253.500 118.561 C 253.500 118.235,252.738 117.313,252.125 116.897 L 251.417 116.417 242.375 116.371 L 233.333 116.325 233.333 117.496 M187.500 121.500 L 187.500 123.167 190.750 123.167 C 192.806 123.167,194.000 123.105,194.000 123.000 C 194.000 122.894,195.333 122.833,197.667 122.833 C 200.051 122.833,201.333 122.893,201.333 123.004 C 201.333 123.115,202.467 123.158,204.625 123.129 L 207.917 123.083 207.964 121.458 L 208.012 119.833 197.756 119.833 L 187.500 119.833 187.500 121.500 M210.333 121.500 L 210.333 123.167 213.667 123.167 C 215.778 123.167,217.000 123.106,217.000 123.000 C 217.000 122.894,218.306 122.833,220.583 122.833 C 222.861 122.833,224.167 122.894,224.167 123.000 C 224.167 123.106,225.389 123.167,227.500 123.167 L 230.833 123.167 230.833 121.500 L 230.833 119.833 220.583 119.833 L 210.333 119.833 210.333 121.500 M233.333 121.470 L 233.333 123.107 243.500 123.107 L 253.667 123.107 253.667 121.470 L 253.667 119.833 243.500 119.833 L 233.333 119.833 233.333 121.470 M256.201 120.858 C 256.266 121.754,256.342 121.943,256.807 122.358 L 257.339 122.833 260.003 122.833 C 261.668 122.833,262.667 122.896,262.667 123.000 C 262.667 123.106,264.028 123.167,266.417 123.167 C 268.806 123.167,270.167 123.106,270.167 123.000 C 270.167 122.896,271.142 122.833,272.758 122.833 C 276.261 122.833,276.667 122.618,276.667 120.761 L 276.667 119.833 266.397 119.833 L 256.127 119.833 256.201 120.858 M279.167 121.500 L 279.167 123.167 282.500 123.167 L 285.833 123.167 285.833 121.500 L 285.833 119.833 282.500 119.833 L 279.167 119.833 279.167 121.500 M288.333 121.500 L 288.333 123.167 293.599 123.167 L 298.865 123.167 298.454 122.458 C 298.227 122.069,297.801 121.319,297.505 120.792 L 296.968 119.833 292.651 119.833 L 288.333 119.833 288.333 121.500 M302.167 121.500 L 302.167 123.167 305.417 123.167 L 308.667 123.167 308.667 121.500 L 308.667 119.833 305.417 119.833 L 302.167 119.833 302.167 121.500 M311.167 121.500 L 311.167 123.167 314.500 123.167 C 316.611 123.167,317.833 123.106,317.833 123.000 C 317.833 122.894,319.139 122.833,321.417 122.833 C 323.694 122.833,325.000 122.894,325.000 123.000 C 325.000 123.106,326.222 123.167,328.333 123.167 L 331.667 123.167 331.667 121.500 L 331.667 119.833 321.417 119.833 L 311.167 119.833 311.167 121.500 M334.167 121.500 L 334.167 123.167 337.333 123.167 C 339.333 123.167,340.500 123.105,340.500 123.000 C 340.500 122.892,342.944 122.833,347.500 122.833 L 354.500 122.833 354.500 121.333 L 354.500 119.833 344.333 119.833 L 334.167 119.833 334.167 121.500 M187.500 126.500 L 187.500 128.833 190.750 128.833 L 194.000 128.833 194.000 126.500 L 194.000 124.167 190.750 124.167 L 187.500 124.167 187.500 126.500 M201.333 124.500 C 201.333 124.822,201.444 124.833,204.667 124.833 C 207.889 124.833,208.000 124.822,208.000 124.500 C 208.000 124.178,207.889 124.167,204.667 124.167 C 201.444 124.167,201.333 124.178,201.333 124.500 M210.333 126.504 L 210.333 128.840 213.625 128.795 L 216.917 128.750 216.963 126.458 L 217.009 124.167 213.671 124.167 L 210.333 124.167 210.333 126.504 M224.204 126.458 L 224.250 128.750 227.542 128.795 L 230.833 128.840 230.833 126.504 L 230.833 124.167 227.495 124.167 L 224.157 124.167 224.204 126.458 M233.333 126.500 L 233.333 128.833 236.583 128.833 L 239.833 128.833 239.833 126.500 L 239.833 124.167 236.583 124.167 L 233.333 124.167 233.333 126.500 M247.167 126.500 L 247.167 128.833 250.417 128.833 L 253.667 128.833 253.667 126.500 L 253.667 124.167 250.417 124.167 L 247.167 124.167 247.167 126.500 M262.704 126.458 L 262.750 128.750 266.458 128.795 L 270.167 128.840 270.167 126.503 L 270.167 124.167 266.412 124.167 L 262.657 124.167 262.704 126.458 M279.167 126.504 L 279.167 128.840 282.458 128.795 L 285.750 128.750 285.796 126.458 L 285.843 124.167 282.505 124.167 L 279.167 124.167 279.167 126.504 M288.333 126.498 L 288.333 128.833 291.574 128.833 L 294.815 128.833 294.866 128.042 L 294.917 127.250 295.382 128.042 L 295.847 128.833 298.924 128.833 C 300.616 128.833,302.000 128.772,302.000 128.697 C 302.000 128.622,301.445 127.590,300.766 126.405 L 299.532 124.250 293.932 124.206 L 288.333 124.162 288.333 126.498 M302.167 126.500 L 302.167 128.833 305.417 128.833 L 308.667 128.833 308.667 126.500 L 308.667 124.167 305.417 124.167 L 302.167 124.167 302.167 126.500 M311.167 126.504 L 311.167 128.840 314.458 128.795 L 317.750 128.750 317.796 126.458 L 317.843 124.167 314.505 124.167 L 311.167 124.167 311.167 126.504 M325.000 126.504 L 325.000 128.840 328.292 128.795 L 331.583 128.750 331.630 126.458 L 331.676 124.167 328.338 124.167 L 325.000 124.167 325.000 126.504 M334.167 126.500 L 334.167 128.833 338.583 128.833 C 341.012 128.833,342.998 128.777,342.996 128.708 C 342.994 128.640,342.450 128.310,341.788 127.975 L 340.583 127.368 340.536 125.767 L 340.488 124.167 337.327 124.167 L 334.167 124.167 334.167 126.500 M187.500 132.250 L 187.500 134.667 190.750 134.667 L 194.000 134.667 194.000 132.250 L 194.000 129.833 190.750 129.833 L 187.500 129.833 187.500 132.250 M210.333 132.250 L 210.333 134.667 213.667 134.667 L 217.000 134.667 217.000 132.250 L 217.000 129.833 213.667 129.833 L 210.333 129.833 210.333 132.250 M224.167 132.250 L 224.167 134.667 227.500 134.667 L 230.833 134.667 230.833 132.250 L 230.833 129.833 227.500 129.833 L 224.167 129.833 224.167 132.250 M233.333 132.250 L 233.333 134.667 243.417 134.667 C 249.474 134.667,253.500 134.605,253.500 134.513 C 253.500 134.279,252.731 133.722,251.191 132.842 L 249.799 132.046 251.274 131.202 C 253.887 129.708,254.705 129.849,243.375 129.841 L 233.333 129.833 233.333 132.250 M262.667 132.250 L 262.667 134.667 266.417 134.667 L 270.167 134.667 270.167 132.250 L 270.167 129.833 266.417 129.833 L 262.667 129.833 262.667 132.250 M279.167 132.250 L 279.167 134.667 282.500 134.667 L 285.833 134.667 285.833 132.250 L 285.833 129.833 282.500 129.833 L 279.167 129.833 279.167 132.250 M288.333 132.250 L 288.333 134.667 291.583 134.667 L 294.833 134.667 294.833 132.250 L 294.833 129.833 291.583 129.833 L 288.333 129.833 288.333 132.250 M296.657 130.125 C 296.749 130.285,297.411 131.354,298.127 132.500 L 299.430 134.583 304.048 134.628 L 308.667 134.672 308.667 132.253 L 308.667 129.833 302.577 129.833 C 296.825 129.833,296.498 129.849,296.657 130.125 M311.167 132.250 L 311.167 134.667 321.417 134.667 L 331.667 134.667 331.667 132.250 L 331.667 129.833 321.417 129.833 L 311.167 129.833 311.167 132.250 M334.167 129.982 C 334.167 130.402,335.074 130.991,338.417 132.742 L 342.083 134.663 348.075 134.665 C 351.981 134.666,354.010 134.610,353.904 134.504 C 353.814 134.414,351.833 133.326,349.501 132.087 L 345.261 129.833 339.714 129.833 C 336.588 129.833,334.167 129.898,334.167 129.982 M187.500 138.250 L 187.500 140.667 190.750 140.667 L 194.000 140.667 194.000 138.250 L 194.000 135.833 190.750 135.833 L 187.500 135.833 187.500 138.250 M210.333 138.250 L 210.333 140.667 213.667 140.667 L 217.000 140.667 217.000 138.250 L 217.000 135.833 213.667 135.833 L 210.333 135.833 210.333 138.250 M224.167 138.250 L 224.167 140.667 227.500 140.667 L 230.833 140.667 230.833 138.250 L 230.833 135.833 227.500 135.833 L 224.167 135.833 224.167 138.250 M233.333 138.250 L 233.333 140.667 236.583 140.667 L 239.833 140.667 239.833 138.250 L 239.833 135.833 236.583 135.833 L 233.333 135.833 233.333 138.250 M247.167 138.250 L 247.167 140.667 250.417 140.667 L 253.667 140.667 253.667 138.250 L 253.667 135.833 250.417 135.833 L 247.167 135.833 247.167 138.250 M262.667 138.250 L 262.667 140.667 266.417 140.667 L 270.167 140.667 270.167 138.250 L 270.167 135.833 266.417 135.833 L 262.667 135.833 262.667 138.250 M279.167 138.250 L 279.167 140.667 282.500 140.667 L 285.833 140.667 285.833 138.250 L 285.833 135.833 282.500 135.833 L 279.167 135.833 279.167 138.250 M288.333 138.250 L 288.333 140.667 291.583 140.667 L 294.833 140.667 294.833 138.250 L 294.833 135.833 291.583 135.833 L 288.333 135.833 288.333 138.250 M301.167 137.391 C 302.058 138.779,302.167 139.043,302.167 139.808 L 302.167 140.667 305.417 140.667 L 308.667 140.667 308.667 138.250 L 308.667 135.833 304.417 135.833 L 300.168 135.833 301.167 137.391 M311.167 138.250 L 311.167 140.667 314.500 140.667 L 317.833 140.667 317.833 138.250 L 317.833 135.833 314.500 135.833 L 311.167 135.833 311.167 138.250 M325.000 138.250 L 325.000 140.667 328.333 140.667 L 331.667 140.667 331.667 138.250 L 331.667 135.833 328.333 135.833 L 325.000 135.833 325.000 138.250 M344.514 135.899 C 344.552 135.936,345.371 136.380,346.333 136.886 L 348.083 137.807 348.131 139.237 L 348.180 140.667 351.340 140.667 L 354.500 140.667 354.500 138.250 L 354.500 135.833 349.472 135.833 C 346.707 135.833,344.476 135.863,344.514 135.899 M201.333 139.750 L 201.333 140.667 204.667 140.667 L 208.000 140.667 208.000 139.750 L 208.000 138.833 204.667 138.833 L 201.333 138.833 201.333 139.750 M187.500 143.585 L 187.500 145.336 197.708 145.293 L 207.917 145.250 207.964 143.542 L 208.012 141.833 204.672 141.833 C 202.557 141.833,201.333 141.894,201.333 142.000 C 201.333 142.106,200.000 142.167,197.667 142.167 C 195.333 142.167,194.000 142.106,194.000 142.000 C 194.000 141.895,192.806 141.833,190.750 141.833 L 187.500 141.833 187.500 143.585 M210.333 143.583 L 210.333 145.333 220.583 145.333 L 230.833 145.333 230.833 143.583 L 230.833 141.833 227.500 141.833 C 225.389 141.833,224.167 141.894,224.167 142.000 C 224.167 142.106,222.861 142.167,220.583 142.167 C 218.306 142.167,217.000 142.106,217.000 142.000 C 217.000 141.894,215.778 141.833,213.667 141.833 L 210.333 141.833 210.333 143.583 M233.333 143.583 L 233.333 145.333 236.583 145.333 L 239.833 145.333 239.833 143.583 L 239.833 141.833 236.583 141.833 L 233.333 141.833 233.333 143.583 M247.167 143.583 L 247.167 145.333 250.417 145.333 L 253.667 145.333 253.667 143.583 L 253.667 141.833 250.417 141.833 L 247.167 141.833 247.167 143.583 M262.667 143.583 L 262.667 145.333 266.417 145.333 L 270.167 145.333 270.167 143.583 L 270.167 141.833 266.417 141.833 L 262.667 141.833 262.667 143.583 M279.167 143.583 L 279.167 145.333 282.500 145.333 L 285.833 145.333 285.833 143.583 L 285.833 141.833 282.500 141.833 L 279.167 141.833 279.167 143.583 M288.333 143.583 L 288.333 145.333 291.583 145.333 L 294.833 145.333 294.833 143.583 L 294.833 141.833 291.583 141.833 L 288.333 141.833 288.333 143.583 M302.167 143.583 L 302.167 145.333 305.417 145.333 L 308.667 145.333 308.667 143.583 L 308.667 141.833 305.417 141.833 L 302.167 141.833 302.167 143.583 M311.167 143.583 L 311.167 145.333 314.500 145.333 L 317.833 145.333 317.833 143.583 L 317.833 141.833 314.500 141.833 L 311.167 141.833 311.167 143.583 M325.000 143.583 L 325.000 145.333 328.333 145.333 L 331.667 145.333 331.667 143.583 L 331.667 141.833 328.333 141.833 L 325.000 141.833 325.000 143.583 M348.167 142.000 C 348.167 142.108,345.722 142.167,341.167 142.167 L 334.167 142.167 334.167 143.750 L 334.167 145.333 344.333 145.333 L 354.500 145.333 354.500 143.583 L 354.500 141.833 351.333 141.833 C 349.333 141.833,348.167 141.895,348.167 142.000 M187.993 146.820 C 188.812 148.351,189.672 148.500,197.667 148.500 C 204.977 148.500,205.688 148.431,206.603 147.627 C 207.987 146.412,208.682 146.500,197.667 146.500 C 188.007 146.500,187.825 146.506,187.993 146.820 M210.833 146.661 C 210.833 146.750,211.095 147.084,211.415 147.404 C 212.489 148.478,212.704 148.500,222.280 148.500 L 230.833 148.500 230.833 147.500 L 230.833 146.500 220.833 146.500 C 214.508 146.500,210.833 146.559,210.833 146.661 M233.333 147.500 L 233.333 148.500 236.583 148.500 L 239.833 148.500 239.833 147.500 L 239.833 146.500 236.583 146.500 L 233.333 146.500 233.333 147.500 M247.167 147.500 L 247.167 148.500 250.417 148.500 L 253.667 148.500 253.667 147.500 L 253.667 146.500 250.417 146.500 L 247.167 146.500 247.167 147.500 M262.667 147.500 L 262.667 148.500 266.417 148.500 L 270.167 148.500 270.167 147.500 L 270.167 146.500 266.417 146.500 L 262.667 146.500 262.667 147.500 M279.167 147.500 L 279.167 148.500 282.500 148.500 L 285.833 148.500 285.833 147.500 L 285.833 146.500 282.500 146.500 L 279.167 146.500 279.167 147.500 M288.333 147.500 L 288.333 148.500 291.583 148.500 L 294.833 148.500 294.833 147.500 L 294.833 146.500 291.583 146.500 L 288.333 146.500 288.333 147.500 M302.167 147.500 L 302.167 148.500 305.417 148.500 L 308.667 148.500 308.667 147.500 L 308.667 146.500 305.417 146.500 L 302.167 146.500 302.167 147.500 M311.167 147.500 L 311.167 148.500 314.500 148.500 L 317.833 148.500 317.833 147.500 L 317.833 146.500 314.500 146.500 L 311.167 146.500 311.167 147.500 M325.000 147.500 L 325.000 148.500 328.333 148.500 L 331.667 148.500 331.667 147.500 L 331.667 146.500 328.333 146.500 L 325.000 146.500 325.000 147.500 M334.167 147.500 L 334.167 148.500 343.589 148.500 C 354.525 148.500,354.500 148.504,354.500 146.928 L 354.500 146.500 344.333 146.500 L 334.167 146.500 334.167 147.500 M108.500 168.392 L 108.500 174.167 109.167 174.167 L 109.833 174.167 109.833 171.936 L 109.833 169.705 110.875 169.636 C 113.083 169.488,113.539 168.857,113.465 166.053 C 113.393 163.281,112.981 162.865,110.151 162.709 L 108.500 162.618 108.500 168.392 M117.500 168.417 L 117.500 174.167 119.833 174.167 L 122.167 174.167 122.167 173.500 L 122.167 172.833 120.500 172.833 L 118.833 172.833 118.833 170.917 L 118.833 169.000 120.167 169.000 L 121.500 169.000 121.500 168.417 L 121.500 167.833 120.167 167.833 L 118.833 167.833 118.833 165.917 L 118.833 164.000 120.500 164.000 L 122.167 164.000 122.167 163.333 L 122.167 162.667 119.833 162.667 L 117.500 162.667 117.500 168.417 M126.333 168.392 L 126.333 174.167 127.000 174.167 L 127.667 174.167 127.667 171.750 L 127.667 169.333 128.488 169.333 C 129.719 169.333,130.000 169.768,130.000 171.668 C 130.000 173.987,130.067 174.167,130.926 174.167 L 131.643 174.167 131.488 173.626 C 131.403 173.329,131.333 172.388,131.333 171.534 C 131.333 169.869,131.111 169.160,130.482 168.824 L 130.134 168.638 130.485 168.392 C 131.107 167.956,131.333 167.272,131.333 165.825 C 131.333 163.350,130.831 162.871,128.072 162.715 L 126.333 162.616 126.333 168.392 M136.686 162.952 C 134.757 163.902,135.128 166.702,137.463 168.810 C 138.981 170.181,139.419 170.906,139.256 171.775 C 138.917 173.582,136.886 173.387,136.707 171.531 C 136.625 170.677,136.618 170.667,136.062 170.667 L 135.500 170.667 135.500 171.505 C 135.500 174.944,140.051 175.283,140.594 171.885 C 140.814 170.509,140.086 169.185,138.366 167.837 C 137.228 166.946,136.835 166.295,136.834 165.304 C 136.832 163.455,139.037 163.295,139.282 165.127 C 139.426 166.200,140.500 166.230,140.500 165.161 C 140.500 163.138,138.573 162.022,136.686 162.952 M180.353 162.952 C 178.426 163.901,178.794 166.695,181.121 168.793 C 182.637 170.159,183.087 170.903,182.923 171.775 C 182.584 173.582,180.552 173.387,180.374 171.531 C 180.292 170.677,180.284 170.667,179.729 170.667 L 179.167 170.667 179.167 171.505 C 179.167 174.902,183.753 175.289,184.256 171.934 C 184.474 170.480,183.816 169.267,182.033 167.838 C 180.502 166.610,180.035 165.117,180.909 164.242 C 181.716 163.435,182.784 163.898,182.949 165.127 C 183.093 166.200,184.167 166.230,184.167 165.161 C 184.167 163.138,182.240 162.022,180.353 162.952 M200.000 163.333 L 200.000 164.000 201.083 164.000 L 202.167 164.000 202.167 169.083 L 202.167 174.167 202.833 174.167 L 203.500 174.167 203.500 169.083 L 203.500 164.000 204.500 164.000 L 205.500 164.000 205.500 163.333 L 205.500 162.667 202.750 162.667 L 200.000 162.667 200.000 163.333 M210.365 163.004 C 209.419 163.581,209.333 164.029,209.333 168.417 C 209.333 171.458,209.387 172.474,209.573 172.918 C 210.252 174.542,213.086 174.628,214.116 173.057 C 214.531 172.424,214.574 164.727,214.167 163.923 C 213.558 162.721,211.604 162.249,210.365 163.004 M227.000 168.393 L 227.000 174.167 228.625 174.163 C 232.057 174.155,232.250 173.849,232.250 168.417 C 232.250 162.996,232.170 162.865,228.800 162.705 L 227.000 162.619 227.000 168.393 M237.548 162.929 C 236.473 163.478,236.333 164.108,236.333 168.417 C 236.333 173.536,236.623 174.167,238.979 174.167 C 240.120 174.167,240.865 173.697,241.273 172.721 C 241.598 171.943,241.597 164.884,241.271 164.120 C 240.718 162.820,238.901 162.239,237.548 162.929 M246.717 162.993 C 244.758 164.187,245.123 166.689,247.578 168.896 C 249.078 170.243,249.405 170.790,249.279 171.734 C 249.030 173.588,247.013 173.416,246.752 171.518 C 246.575 170.227,245.498 170.176,245.504 171.458 C 245.518 174.558,249.722 175.385,250.516 172.443 C 250.969 170.761,250.419 169.519,248.495 167.885 C 246.793 166.439,246.346 165.139,247.242 164.242 C 248.060 163.425,249.333 164.034,249.333 165.242 C 249.333 165.824,249.344 165.833,250.023 165.833 L 250.712 165.833 250.609 165.080 C 250.325 163.012,248.389 161.973,246.717 162.993 M282.667 168.393 L 282.667 174.167 284.125 174.166 C 285.937 174.165,286.633 173.978,287.259 173.324 C 288.282 172.258,287.958 168.509,286.818 168.211 C 286.489 168.125,286.489 168.122,286.827 167.885 C 287.401 167.484,287.667 166.756,287.667 165.586 C 287.667 163.350,287.091 162.845,284.387 162.707 L 282.667 162.619 282.667 168.393 M292.000 168.417 L 292.000 174.167 294.333 174.167 L 296.667 174.167 296.667 173.500 L 296.667 172.833 295.000 172.833 L 293.333 172.833 293.333 170.917 L 293.333 169.000 294.667 169.000 L 296.000 169.000 296.000 168.417 L 296.000 167.833 294.667 167.833 L 293.333 167.833 293.333 165.917 L 293.333 164.000 295.000 164.000 L 296.667 164.000 296.667 163.333 L 296.667 162.667 294.333 162.667 L 292.000 162.667 292.000 168.417 M300.792 162.758 C 300.723 162.830,300.667 165.426,300.667 168.528 L 300.667 174.167 301.333 174.167 L 302.000 174.167 302.000 171.750 L 302.000 169.333 302.841 169.333 C 304.222 169.333,304.499 169.742,304.502 171.784 C 304.505 174.008,304.559 174.167,305.315 174.167 L 305.925 174.167 305.874 172.375 C 305.804 169.914,305.720 169.517,305.155 168.990 L 304.670 168.536 305.070 168.274 C 306.309 167.462,306.050 163.623,304.715 163.015 C 304.193 162.776,300.975 162.566,300.792 162.758 M309.667 163.333 L 309.667 164.000 310.667 164.000 L 311.667 164.000 311.667 169.083 L 311.667 174.167 312.333 174.167 L 313.000 174.167 313.000 169.083 L 313.000 164.000 314.083 164.000 L 315.167 164.000 315.167 163.333 L 315.167 162.667 312.417 162.667 L 309.667 162.667 309.667 163.333 M328.167 168.392 L 328.167 174.167 328.750 174.167 L 329.333 174.167 329.333 171.750 L 329.333 169.333 330.174 169.333 C 331.528 169.333,331.833 169.758,331.833 171.638 C 331.833 173.914,331.915 174.167,332.647 174.167 L 333.252 174.167 333.203 172.208 C 333.142 169.763,333.096 169.557,332.483 168.984 C 331.999 168.532,331.995 168.514,332.324 168.338 C 332.920 168.019,333.167 167.283,333.167 165.825 C 333.167 163.350,332.664 162.871,329.906 162.715 L 328.167 162.616 328.167 168.392 M348.198 163.004 C 347.507 163.426,347.167 164.222,347.167 165.417 C 347.167 166.900,347.473 167.412,349.307 168.997 C 350.882 170.357,351.279 171.556,350.488 172.561 C 349.682 173.585,348.333 172.854,348.333 171.394 L 348.333 170.667 347.667 170.667 C 346.910 170.667,346.806 171.044,347.185 172.409 C 347.770 174.516,350.859 174.911,351.832 173.003 C 352.668 171.364,352.154 169.792,350.211 168.040 C 348.659 166.641,348.223 165.843,348.487 164.886 C 348.922 163.312,350.833 163.540,350.833 165.167 L 350.833 165.833 351.500 165.833 C 352.160 165.833,352.167 165.827,352.163 165.208 C 352.151 163.156,349.953 161.934,348.198 163.004 M144.667 168.500 L 144.667 174.167 145.333 174.167 L 146.000 174.167 146.000 168.500 L 146.000 162.833 145.333 162.833 L 144.667 162.833 144.667 168.500 M151.938 163.117 C 151.807 163.553,149.833 173.728,149.833 173.966 C 149.833 174.084,150.070 174.167,150.405 174.167 C 151.009 174.167,151.042 174.122,151.250 173.000 C 151.477 171.775,151.395 171.833,152.909 171.833 L 154.295 171.833 154.410 172.625 C 154.630 174.152,154.639 174.167,155.351 174.167 C 156.143 174.167,156.190 174.833,154.944 168.333 L 153.906 162.917 152.967 162.867 C 152.181 162.826,152.013 162.867,151.938 163.117 M160.000 168.500 L 160.000 174.167 160.581 174.167 L 161.161 174.167 161.206 169.890 L 161.250 165.614 162.589 169.849 L 163.928 174.083 164.631 174.135 L 165.333 174.186 165.333 168.510 L 165.333 162.833 164.750 162.833 L 164.167 162.833 164.154 166.708 L 164.140 170.583 163.664 169.167 C 163.402 168.387,162.833 166.644,162.400 165.292 L 161.612 162.833 160.806 162.833 L 160.000 162.833 160.000 168.500 M171.274 163.117 C 171.176 163.453,169.789 170.652,169.498 172.333 C 169.395 172.929,169.269 173.591,169.218 173.803 C 169.131 174.162,169.170 174.186,169.766 174.136 C 170.384 174.085,170.413 174.056,170.543 173.333 C 170.838 171.690,170.676 171.833,172.238 171.833 L 173.636 171.833 173.845 173.000 L 174.053 174.167 174.693 174.167 C 175.467 174.167,175.458 174.391,174.817 171.083 C 174.534 169.617,174.062 167.179,173.769 165.667 L 173.236 162.917 172.299 162.867 C 171.514 162.826,171.347 162.866,171.274 163.117 M218.667 168.500 L 218.667 174.167 220.917 174.167 L 223.167 174.167 223.167 173.500 L 223.167 172.833 221.583 172.833 L 220.000 172.833 220.000 167.833 L 220.000 162.833 219.333 162.833 L 218.667 162.833 218.667 168.500 M274.592 163.208 C 274.476 163.741,273.251 170.125,272.920 171.917 C 272.767 172.742,272.602 173.585,272.553 173.792 C 272.473 174.128,272.526 174.167,273.070 174.167 C 273.736 174.167,273.730 174.175,274.002 172.792 L 274.190 171.833 275.580 171.833 L 276.970 171.833 277.178 173.000 L 277.387 174.167 278.027 174.167 C 278.838 174.167,278.948 175.177,277.060 165.292 L 276.591 162.833 275.632 162.833 C 274.773 162.833,274.665 162.872,274.592 163.208 M318.866 167.708 C 318.930 173.812,319.074 174.167,321.501 174.167 C 323.704 174.167,323.998 173.357,323.999 167.292 L 324.000 162.833 323.333 162.833 L 322.667 162.833 322.667 167.478 C 322.667 172.753,322.611 173.000,321.417 173.000 C 320.223 173.000,320.167 172.753,320.167 167.478 L 320.167 162.833 319.491 162.833 L 318.815 162.833 318.866 167.708 M338.203 168.292 C 336.977 174.708,337.020 174.167,337.738 174.167 C 338.301 174.167,338.313 174.152,338.498 173.208 C 338.602 172.681,338.717 172.156,338.755 172.042 C 338.802 171.898,339.239 171.833,340.167 171.833 C 341.094 171.833,341.532 171.898,341.579 172.042 C 341.616 172.156,341.732 172.681,341.835 173.208 L 342.024 174.167 342.678 174.167 C 343.039 174.167,343.333 174.122,343.333 174.068 C 343.333 174.014,343.000 172.271,342.593 170.193 C 342.186 168.116,341.733 165.742,341.585 164.917 C 341.188 162.689,341.284 162.833,340.195 162.833 L 339.246 162.833 338.203 168.292 M212.690 164.152 C 213.167 164.538,213.394 171.486,212.957 172.331 C 212.464 173.284,211.066 173.179,210.718 172.163 C 210.470 171.442,210.432 165.670,210.669 164.817 C 210.928 163.883,211.944 163.548,212.690 164.152 M239.758 164.242 L 240.167 164.652 240.167 168.387 C 240.167 172.648,240.071 173.000,238.917 173.000 C 237.762 173.000,237.667 172.648,237.667 168.387 L 237.667 164.652 238.076 164.242 C 238.301 164.017,238.679 163.833,238.917 163.833 C 239.154 163.833,239.533 164.017,239.758 164.242 M111.833 164.333 C 112.119 164.619,112.166 164.887,112.164 166.208 C 112.161 168.185,111.933 168.500,110.511 168.500 L 109.833 168.500 109.833 166.250 L 109.833 164.000 110.667 164.000 C 111.278 164.000,111.589 164.089,111.833 164.333 M129.667 164.333 C 129.943 164.610,130.000 164.889,130.000 165.968 C 130.000 167.488,129.838 167.790,128.912 168.005 C 127.602 168.309,127.667 168.409,127.667 166.083 L 127.667 164.000 128.500 164.000 C 129.111 164.000,129.422 164.089,129.667 164.333 M230.523 164.319 C 230.916 164.636,230.917 164.647,230.917 168.384 C 230.917 172.847,230.922 172.833,229.308 172.833 L 228.333 172.833 228.333 168.417 L 228.333 164.000 229.232 164.000 C 229.868 164.000,230.245 164.093,230.523 164.319 M286.074 164.370 C 286.965 165.643,286.229 167.500,284.833 167.500 L 284.000 167.500 284.000 165.750 L 284.000 164.000 284.907 164.000 C 285.656 164.000,285.860 164.065,286.074 164.370 M304.167 164.333 C 304.443 164.610,304.500 164.889,304.500 165.968 C 304.500 167.488,304.338 167.790,303.412 168.005 C 301.936 168.347,302.000 168.434,302.000 166.083 L 302.000 164.000 302.917 164.000 C 303.611 164.000,303.914 164.081,304.167 164.333 M331.500 164.333 C 331.776 164.610,331.833 164.889,331.833 165.968 C 331.833 167.488,331.672 167.790,330.746 168.005 C 329.270 168.347,329.333 168.434,329.333 166.083 L 329.333 164.000 330.250 164.000 C 330.944 164.000,331.247 164.081,331.500 164.333 M275.609 170.633 C 274.173 170.694,274.252 171.070,274.952 167.505 L 275.554 164.438 276.156 167.511 L 276.759 170.583 275.609 170.633 M173.321 170.292 C 173.333 170.646,173.269 170.667,172.163 170.667 C 171.037 170.667,170.997 170.653,171.077 170.292 C 171.122 170.085,171.349 168.904,171.580 167.667 C 172.218 164.251,172.156 164.273,172.764 167.250 C 173.063 168.717,173.314 170.085,173.321 170.292 M340.755 167.583 C 340.992 168.867,341.228 170.085,341.278 170.292 C 341.366 170.654,341.330 170.667,340.164 170.667 L 338.958 170.667 339.048 170.208 C 339.097 169.956,339.351 168.605,339.611 167.205 C 340.148 164.310,340.149 164.310,340.755 167.583 M153.989 170.458 C 153.997 170.606,153.661 170.667,152.833 170.667 C 152.192 170.667,151.667 170.627,151.667 170.579 C 151.667 170.362,152.691 165.223,152.778 165.000 C 152.858 164.797,153.952 169.729,153.989 170.458 M193.667 168.417 L 193.667 169.000 195.250 169.000 L 196.833 169.000 196.833 168.417 L 196.833 167.833 195.250 167.833 L 193.667 167.833 193.667 168.417 M260.000 168.417 L 260.000 169.000 261.583 169.000 L 263.167 169.000 263.167 168.417 L 263.167 167.833 261.583 167.833 L 260.000 167.833 260.000 168.417 M286.027 169.014 C 286.431 169.231,286.589 169.864,286.557 171.137 C 286.521 172.560,286.266 172.833,284.974 172.833 L 284.000 172.833 284.000 170.729 L 284.000 168.624 284.862 168.738 C 285.336 168.801,285.860 168.925,286.027 169.014 " stroke="none" fill="#040404" fill-rule="evenodd"></path><path id="path3" d="M79.958 123.123 C 80.440 123.157,81.227 123.157,81.708 123.123 C 82.190 123.089,81.796 123.062,80.833 123.062 C 79.871 123.062,79.477 123.089,79.958 123.123 M92.884 123.125 C 93.967 123.154,95.692 123.154,96.718 123.124 C 97.744 123.095,96.858 123.071,94.750 123.071 C 92.642 123.072,91.802 123.095,92.884 123.125 M110.542 123.123 C 110.977 123.157,111.690 123.157,112.125 123.123 C 112.560 123.088,112.204 123.060,111.333 123.060 C 110.462 123.060,110.106 123.088,110.542 123.123 M87.699 125.124 C 88.679 125.154,90.329 125.154,91.366 125.125 C 92.402 125.095,91.600 125.071,89.583 125.071 C 87.567 125.071,86.719 125.095,87.699 125.124 M101.042 125.124 C 101.660 125.156,102.673 125.156,103.292 125.124 C 103.910 125.092,103.404 125.065,102.167 125.065 C 100.929 125.065,100.423 125.092,101.042 125.124 M108.542 133.448 C 108.702 133.490,108.965 133.490,109.125 133.448 C 109.285 133.406,109.154 133.372,108.833 133.372 C 108.513 133.372,108.381 133.406,108.542 133.448 M110.542 133.448 C 110.702 133.490,110.965 133.490,111.125 133.448 C 111.285 133.406,111.154 133.372,110.833 133.372 C 110.513 133.372,110.381 133.406,110.542 133.448 M97.375 133.615 C 97.535 133.657,97.798 133.657,97.958 133.615 C 98.119 133.573,97.987 133.539,97.667 133.539 C 97.346 133.539,97.215 133.573,97.375 133.615 M79.794 133.785 C 80.001 133.824,80.301 133.823,80.460 133.781 C 80.620 133.739,80.450 133.707,80.083 133.709 C 79.717 133.711,79.586 133.745,79.794 133.785 M81.875 133.782 C 82.035 133.823,82.298 133.823,82.458 133.782 C 82.619 133.740,82.487 133.705,82.167 133.705 C 81.846 133.705,81.715 133.740,81.875 133.782 M66.627 133.951 C 66.834 133.991,67.134 133.990,67.294 133.948 C 67.453 133.906,67.283 133.874,66.917 133.875 C 66.550 133.877,66.420 133.911,66.627 133.951 " stroke="none" fill="#5c9cdc" fill-rule="evenodd"></path><path id="path4" d="" stroke="none" fill="#385438" fill-rule="evenodd"></path></g></svg>